<?xml version="1.0" encoding="UTF-8" standalone="no"?>
<!DOCTYPE svg PUBLIC "-//W3C//DTD SVG 1.1//EN"
 "http://www.w3.org/Graphics/SVG/1.1/DTD/svg11.dtd">
<!-- Generated by graphviz version 12.1.1 (20240910.0053)
 -->
<!-- Title: INFRA Pages: 1 -->
<svg width="1307pt" height="296pt"
 viewBox="0.00 0.00 1306.53 296.00" xmlns="http://www.w3.org/2000/svg" xmlns:xlink="http://www.w3.org/1999/xlink">
<g id="graph0" class="graph" transform="scale(1 1) rotate(0) translate(4 292)">
<title>INFRA</title>
<polygon fill="white" stroke="none" points="-4,4 -4,-292 1302.53,-292 1302.53,4 -4,4"/>
<!-- aws_eks_cluster.main -->
<g id="node1" class="node">
<title>aws_eks_cluster.main</title>
<path fill="#b7e0ff" stroke="black" stroke-width="2" d="M595.83,-180C595.83,-180 466.1,-180 466.1,-180 460.1,-180 454.1,-174 454.1,-168 454.1,-168 454.1,-120 454.1,-120 454.1,-114 460.1,-108 466.1,-108 466.1,-108 595.83,-108 595.83,-108 601.83,-108 607.83,-114 607.83,-120 607.83,-120 607.83,-168 607.83,-168 607.83,-174 601.83,-180 595.83,-180"/>
<text text-anchor="middle" x="530.96" y="-148.2" font-family="Arial" font-size="14.00">aws_eks_cluster.main</text>
<text text-anchor="middle" x="530.96" y="-131.4" font-family="Arial" font-size="14.00">(AWS::EKS::Cluster)</text>
</g>
<!-- aws_iam_role.eks_cluster_role -->
<g id="node2" class="node">
<title>aws_iam_role.eks_cluster_role</title>
<path fill="#e6e6e6" stroke="black" stroke-width="2" d="M635.06,-72C635.06,-72 450.87,-72 450.87,-72 444.87,-72 438.87,-66 438.87,-60 438.87,-60 438.87,-12 438.87,-12 438.87,-6 444.87,0 450.87,0 450.87,0 635.06,0 635.06,0 641.06,0 647.06,-6 647.06,-12 647.06,-12 647.06,-60 647.06,-60 647.06,-66 641.06,-72 635.06,-72"/>
<text text-anchor="middle" x="542.96" y="-40.2" font-family="Arial" font-size="14.00">aws_iam_role.eks_cluster_role</text>
<text text-anchor="middle" x="542.96" y="-23.4" font-family="Arial" font-size="14.00">(AWS::IAM::Role)</text>
</g>
<!-- aws_eks_cluster.main&#45;&gt;aws_iam_role.eks_cluster_role -->
<g id="edge1" class="edge">
<title>aws_eks_cluster.main&#45;&gt;aws_iam_role.eks_cluster_role</title>
<path fill="none" stroke="black" d="M534.96,-107.7C535.84,-99.93 536.79,-91.57 537.71,-83.43"/>
<polygon fill="black" stroke="black" points="541.17,-83.98 538.82,-73.65 534.21,-83.19 541.17,-83.98"/>
</g>
<!-- aws_kms_key.main -->
<g id="node5" class="node">
<title>aws_kms_key.main</title>
<path fill="#e6e6e6" stroke="black" stroke-width="2" d="M409.04,-72C409.04,-72 294.89,-72 294.89,-72 288.89,-72 282.89,-66 282.89,-60 282.89,-60 282.89,-12 282.89,-12 282.89,-6 288.89,0 294.89,0 294.89,0 409.04,0 409.04,0 415.04,0 421.04,-6 421.04,-12 421.04,-12 421.04,-60 421.04,-60 421.04,-66 415.04,-72 409.04,-72"/>
<text text-anchor="middle" x="351.96" y="-40.2" font-family="Arial" font-size="14.00">aws_kms_key.main</text>
<text text-anchor="middle" x="351.96" y="-23.4" font-family="Arial" font-size="14.00">(AWS::KMS::Key)</text>
</g>
<!-- aws_eks_cluster.main&#45;&gt;aws_kms_key.main -->
<g id="edge2" class="edge">
<title>aws_eks_cluster.main&#45;&gt;aws_kms_key.main</title>
<path fill="none" stroke="black" d="M471.36,-107.7C455.29,-98.19 437.77,-87.81 421.23,-78.01"/>
<polygon fill="black" stroke="black" points="423.3,-75.18 412.92,-73.09 419.74,-81.2 423.3,-75.18"/>
</g>
<!-- aws_iam_role.eks_nodes_role -->
<g id="node3" class="node">
<title>aws_iam_role.eks_nodes_role</title>
<path fill="#e6e6e6" stroke="black" stroke-width="2" d="M1279.52,-180C1279.52,-180 1098.41,-180 1098.41,-180 1092.41,-180 1086.41,-174 1086.41,-168 1086.41,-168 1086.41,-120 1086.41,-120 1086.41,-114 1092.41,-108 1098.41,-108 1098.41,-108 1279.52,-108 1279.52,-108 1285.52,-108 1291.52,-114 1291.52,-120 1291.52,-120 1291.52,-168 1291.52,-168 1291.52,-174 1285.52,-180 1279.52,-180"/>
<text text-anchor="middle" x="1188.96" y="-148.2" font-family="Arial" font-size="14.00">aws_iam_role.eks_nodes_role</text>
<text text-anchor="middle" x="1188.96" y="-131.4" font-family="Arial" font-size="14.00">(AWS::IAM::Role)</text>
</g>
<!-- aws_iam_instance_profile.nodes -->
<g id="node4" class="node">
<title>aws_iam_instance_profile.nodes</title>
<path fill="#e6e6e6" stroke="black" stroke-width="2" d="M1286.53,-288C1286.53,-288 1091.4,-288 1091.4,-288 1085.4,-288 1079.4,-282 1079.4,-276 1079.4,-276 1079.4,-228 1079.4,-228 1079.4,-222 1085.4,-216 1091.4,-216 1091.4,-216 1286.53,-216 1286.53,-216 1292.53,-216 1298.53,-222 1298.53,-228 1298.53,-228 1298.53,-276 1298.53,-276 1298.53,-282 1292.53,-288 1286.53,-288"/>
<text text-anchor="middle" x="1188.96" y="-256.2" font-family="Arial" font-size="14.00">aws_iam_instance_profile.nodes</text>
<text text-anchor="middle" x="1188.96" y="-239.4" font-family="Arial" font-size="14.00">(AWS::IAM::InstanceProfile)</text>
</g>
<!-- aws_iam_instance_profile.nodes&#45;&gt;aws_iam_role.eks_nodes_role -->
<g id="edge3" class="edge">
<title>aws_iam_instance_profile.nodes&#45;&gt;aws_iam_role.eks_nodes_role</title>
<path fill="none" stroke="black" d="M1188.96,-215.7C1188.96,-207.93 1188.96,-199.57 1188.96,-191.43"/>
<polygon fill="black" stroke="black" points="1192.46,-191.66 1188.96,-181.66 1185.46,-191.66 1192.46,-191.66"/>
</g>
<!-- aws_kms_alias.main -->
<g id="node6" class="node">
<title>aws_kms_alias.main</title>
<path fill="#e6e6e6" stroke="black" stroke-width="2" d="M412.54,-180C412.54,-180 291.39,-180 291.39,-180 285.39,-180 279.39,-174 279.39,-168 279.39,-168 279.39,-120 279.39,-120 279.39,-114 285.39,-108 291.39,-108 291.39,-108 412.54,-108 412.54,-108 418.54,-108 424.54,-114 424.54,-120 424.54,-120 424.54,-168 424.54,-168 424.54,-174 418.54,-180 412.54,-180"/>
<text text-anchor="middle" x="351.96" y="-148.2" font-family="Arial" font-size="14.00">aws_kms_alias.main</text>
<text text-anchor="middle" x="351.96" y="-131.4" font-family="Arial" font-size="14.00">(AWS::KMS::Alias)</text>
</g>
<!-- aws_kms_alias.main&#45;&gt;aws_kms_key.main -->
<g id="edge4" class="edge">
<title>aws_kms_alias.main&#45;&gt;aws_kms_key.main</title>
<path fill="none" stroke="black" d="M351.96,-107.7C351.96,-99.93 351.96,-91.57 351.96,-83.43"/>
<polygon fill="black" stroke="black" points="355.46,-83.66 351.96,-73.66 348.46,-83.66 355.46,-83.66"/>
</g>
<!-- aws_iam_openid_connect_provider.eks -->
<g id="node7" class="node">
<title>aws_iam_openid_connect_provider.eks</title>
<path fill="#e6e6e6" stroke="black" stroke-width="2" d="M249.93,-288C249.93,-288 12,-288 12,-288 6,-288 0,-282 0,-276 0,-276 0,-228 0,-228 0,-222 6,-216 12,-216 12,-216 249.93,-216 249.93,-216 255.93,-216 261.93,-222 261.93,-228 261.93,-228 261.93,-276 261.93,-276 261.93,-282 255.93,-288 249.93,-288"/>
<text text-anchor="middle" x="130.96" y="-256.2" font-family="Arial" font-size="14.00">aws_iam_openid_connect_provider.eks</text>
<text text-anchor="middle" x="130.96" y="-239.4" font-family="Arial" font-size="14.00">(AWS::IAM::OIDCProvider)</text>
</g>
<!-- aws_iam_openid_connect_provider.eks&#45;&gt;aws_eks_cluster.main -->
<g id="edge5" class="edge">
<title>aws_iam_openid_connect_provider.eks&#45;&gt;aws_eks_cluster.main</title>
<path fill="none" stroke="black" d="M262.1,-218.1C265.08,-217.39 268.04,-216.69 270.96,-216 343.18,-199 362.7,-200.63 433.96,-180 436.89,-179.15 439.85,-178.27 442.83,-177.35"/>
<polygon fill="black" stroke="black" points="443.78,-180.72 452.25,-174.35 441.66,-174.05 443.78,-180.72"/>
</g>
<!-- aws_security_group_rule.nodeports -->
<g id="node8" class="node">
<title>aws_security_group_rule.nodeports</title>
<path fill="#e6e6e6" stroke="black" stroke-width="2" d="M505.86,-288C505.86,-288 292.07,-288 292.07,-288 286.07,-288 280.07,-282 280.07,-276 280.07,-276 280.07,-228 280.07,-228 280.07,-222 286.07,-216 292.07,-216 292.07,-216 505.86,-216 505.86,-216 511.86,-216 517.86,-222 517.86,-228 517.86,-228 517.86,-276 517.86,-276 517.86,-282 511.86,-288 505.86,-288"/>
<text text-anchor="middle" x="398.96" y="-256.2" font-family="Arial" font-size="14.00">aws_security_group_rule.nodeports</text>
<text text-anchor="middle" x="398.96" y="-239.4" font-family="Arial" font-size="14.00">(AWS::EC2::SecurityGroupIngress)</text>
</g>
<!-- aws_security_group_rule.nodeports&#45;&gt;aws_eks_cluster.main -->
<g id="edge6" class="edge">
<title>aws_security_group_rule.nodeports&#45;&gt;aws_eks_cluster.main</title>
<path fill="none" stroke="black" d="M442.92,-215.7C454.27,-206.59 466.61,-196.68 478.36,-187.24"/>
<polygon fill="black" stroke="black" points="480.42,-190.08 486.02,-181.09 476.03,-184.62 480.42,-190.08"/>
</g>
<!-- aws_security_group_rule.coredns_udp -->
<g id="node9" class="node">
<title>aws_security_group_rule.coredns_udp</title>
<path fill="#e6e6e6" stroke="black" stroke-width="2" d="M780.21,-288C780.21,-288 547.72,-288 547.72,-288 541.72,-288 535.72,-282 535.72,-276 535.72,-276 535.72,-228 535.72,-228 535.72,-222 541.72,-216 547.72,-216 547.72,-216 780.21,-216 780.21,-216 786.21,-216 792.21,-222 792.21,-228 792.21,-228 792.21,-276 792.21,-276 792.21,-282 786.21,-288 780.21,-288"/>
<text text-anchor="middle" x="663.96" y="-256.2" font-family="Arial" font-size="14.00">aws_security_group_rule.coredns_udp</text>
<text text-anchor="middle" x="663.96" y="-239.4" font-family="Arial" font-size="14.00">(AWS::EC2::SecurityGroupIngress)</text>
</g>
<!-- aws_security_group_rule.coredns_udp&#45;&gt;aws_eks_cluster.main -->
<g id="edge7" class="edge">
<title>aws_security_group_rule.coredns_udp&#45;&gt;aws_eks_cluster.main</title>
<path fill="none" stroke="black" d="M619.68,-215.7C608.24,-206.59 595.8,-196.68 583.97,-187.24"/>
<polygon fill="black" stroke="black" points="586.24,-184.58 576.24,-181.09 581.88,-190.06 586.24,-184.58"/>
</g>
<!-- aws_security_group_rule.coredns_tcp -->
<g id="node10" class="node">
<title>aws_security_group_rule.coredns_tcp</title>
<path fill="#e6e6e6" stroke="black" stroke-width="2" d="M1049.86,-288C1049.86,-288 822.07,-288 822.07,-288 816.07,-288 810.07,-282 810.07,-276 810.07,-276 810.07,-228 810.07,-228 810.07,-222 816.07,-216 822.07,-216 822.07,-216 1049.86,-216 1049.86,-216 1055.86,-216 1061.86,-222 1061.86,-228 1061.86,-228 1061.86,-276 1061.86,-276 1061.86,-282 1055.86,-288 1049.86,-288"/>
<text text-anchor="middle" x="935.96" y="-256.2" font-family="Arial" font-size="14.00">aws_security_group_rule.coredns_tcp</text>
<text text-anchor="middle" x="935.96" y="-239.4" font-family="Arial" font-size="14.00">(AWS::EC2::SecurityGroupIngress)</text>
</g>
<!-- aws_security_group_rule.coredns_tcp&#45;&gt;aws_eks_cluster.main -->
<g id="edge8" class="edge">
<title>aws_security_group_rule.coredns_tcp&#45;&gt;aws_eks_cluster.main</title>
<path fill="none" stroke="black" d="M809.76,-217.97C747.84,-201.76 674.78,-182.64 618.98,-168.04"/>
<polygon fill="black" stroke="black" points="620.09,-164.71 609.53,-165.56 618.31,-171.48 620.09,-164.71"/>
</g>
</g>
</svg>
